<mxfile host="65bd71144e">
    <diagram id="PQrEq3rPVC2QKP3qtncb" name="Page-1">
        <mxGraphModel dx="734" dy="422" grid="1" gridSize="10" guides="1" tooltips="1" connect="1" arrows="1" fold="1" page="1" pageScale="1" pageWidth="850" pageHeight="1100" math="0" shadow="0">
            <root>
                <mxCell id="0"/>
                <mxCell id="1" parent="0"/>
                <mxCell id="2" value="" style="whiteSpace=wrap;html=1;fillColor=#DAE8FC;strokeColor=#6c8ebf;gradientColor=#ffffff;gradientDirection=south;rounded=1;sketch=0;glass=0;shadow=1;arcSize=15;" vertex="1" parent="1">
                    <mxGeometry x="200" y="70" width="320" height="220" as="geometry"/>
                </mxCell>
                <mxCell id="3" value="AAdd" style="whiteSpace=wrap;html=1;rounded=1;shadow=0;glass=0;sketch=0;gradientColor=#ffffff;gradientDirection=south;arcSize=50;fillColor=#FFFFFF;strokeColor=#6c8ebf;" vertex="1" parent="1">
                    <mxGeometry x="210" y="90" width="300" height="70" as="geometry"/>
                </mxCell>
                <mxCell id="6" value="" style="whiteSpace=wrap;html=1;rounded=1;shadow=0;glass=0;sketch=0;fillColor=#f5f5f5;gradientColor=none;gradientDirection=south;strokeColor=#666666;" vertex="1" parent="1">
                    <mxGeometry x="210" y="170" width="300" height="40" as="geometry"/>
                </mxCell>
                <mxCell id="8" value="" style="whiteSpace=wrap;html=1;rounded=1;shadow=0;glass=0;sketch=0;fillColor=#f5f5f5;gradientColor=none;gradientDirection=south;strokeColor=#666666;arcSize=50;fontStyle=0" vertex="1" parent="1">
                    <mxGeometry x="220" y="235" width="280" height="40" as="geometry"/>
                </mxCell>
                <mxCell id="9" value="My To-Do List" style="text;html=1;strokeColor=none;fillColor=none;align=center;verticalAlign=middle;whiteSpace=wrap;rounded=0;shadow=0;glass=0;sketch=0;fontColor=#187DF0;fontStyle=1;fontSize=30;" vertex="1" parent="1">
                    <mxGeometry x="210" y="90" width="300" height="70" as="geometry"/>
                </mxCell>
                <mxCell id="10" value="Add Task" style="text;html=1;strokeColor=none;fillColor=none;align=left;verticalAlign=middle;whiteSpace=wrap;rounded=0;shadow=0;glass=0;sketch=0;fontSize=19;fontColor=#187DF0;" vertex="1" parent="1">
                    <mxGeometry x="310" y="240" width="180" height="30" as="geometry"/>
                </mxCell>
                <mxCell id="22" style="edgeStyle=none;html=1;entryX=0.169;entryY=0.992;entryDx=0;entryDy=0;entryPerimeter=0;fontSize=19;fontColor=#187DF0;" edge="1" parent="1" source="2" target="8">
                    <mxGeometry relative="1" as="geometry"/>
                </mxCell>
                <mxCell id="25" style="edgeStyle=none;html=1;exitX=0;exitY=0;exitDx=18.6666259765625;exitDy=18.6666259765625;exitPerimeter=0;fontSize=19;fontColor=#187DF0;" edge="1" parent="1" source="11" target="2">
                    <mxGeometry relative="1" as="geometry"/>
                </mxCell>
                <mxCell id="11" value="" style="shape=cross;whiteSpace=wrap;html=1;rounded=1;shadow=0;glass=0;sketch=0;fontSize=19;fillColor=#d5e8d4;gradientColor=#97d077;gradientDirection=south;size=0.24444173177083334;strokeColor=#82b366;" vertex="1" parent="1">
                    <mxGeometry x="270" y="240" width="30" height="30" as="geometry"/>
                </mxCell>
                <mxCell id="20" style="edgeStyle=none;html=1;fontSize=19;fontColor=#187DF0;" edge="1" parent="1" source="19" target="6">
                    <mxGeometry relative="1" as="geometry"/>
                </mxCell>
                <mxCell id="21" style="edgeStyle=none;html=1;exitX=0;exitY=0;exitDx=12;exitDy=12;exitPerimeter=0;fontSize=19;fontColor=#187DF0;" edge="1" parent="1" source="19" target="6">
                    <mxGeometry relative="1" as="geometry"/>
                </mxCell>
                <mxCell id="19" value="" style="shape=cross;whiteSpace=wrap;html=1;rounded=1;shadow=0;glass=0;sketch=0;fontSize=19;fillColor=#f8cecc;gradientColor=#ea6b66;gradientDirection=south;rotation=45;strokeColor=#b85450;size=0.21873025903460833;" vertex="1" parent="1">
                    <mxGeometry x="220" y="175" width="30" height="30" as="geometry"/>
                </mxCell>
            </root>
        </mxGraphModel>
    </diagram>
</mxfile>